<?xml version="1.0" encoding="utf-8"?>
<!-- Generator: Adobe Illustrator 24.1.2, SVG Export Plug-In . SVG Version: 6.00 Build 0)  -->
<svg version="1.1" id="Layer_1" xmlns="http://www.w3.org/2000/svg" xmlns:xlink="http://www.w3.org/1999/xlink" x="0px" y="0px"
	 viewBox="0 0 308.1 309.4" style="enable-background:new 0 0 308.1 309.4;" xml:space="preserve">
<style type="text/css">
	.st0{fill:none;stroke:#077A3E;stroke-width:3;stroke-miterlimit:10;}
	.st1{fill:#057A40;}
	.st2{fill:#FFFFFF;}
	.st3{fill-rule:evenodd;clip-rule:evenodd;fill:#FFFFFF;}
</style>
<g>
	<path class="st0" d="M72.6,194.3"/>
	<circle class="st1" cx="152.8" cy="149.8" r="122.1"/>
	<g>
		<g>
			<g>
				<path class="st2" d="M77.3,194.1l-16.5,4.1c-0.9,0.2-1.6-0.1-1.9-1.1l-0.8-2.4c-0.3-0.9-0.2-1.6,0.5-2.2l9-8.3l-12.2-0.8
					c-0.9-0.1-1.4-0.5-1.8-1.4l-0.8-2.4c-0.3-0.9-0.1-1.7,0.8-2.1l15.3-7.2c1-0.5,1.7-0.1,2.1,0.9l0.8,2.2c0.3,1,0.1,1.7-0.8,2.1
					l-8.4,3.9l10,0.6c0.9,0,1.5,0.5,1.8,1.4l0.3,0.9c0.3,0.9,0.2,1.6-0.5,2.2l-7.4,6.8l9-2.3c0.9-0.2,1.6,0.2,2,1.1l0.8,2.1
					C78.7,193.1,78.4,193.8,77.3,194.1z"/>
				<path class="st2" d="M54.4,163.8l3.6-0.3l-0.6-6.3c-0.1-1.1,0.4-1.7,1.4-1.8l0.9-0.1c1-0.1,1.6,0.5,1.7,1.5l0.6,6.3l3.4-0.3
					l-0.7-7.5c-0.1-1.1,0.4-1.7,1.4-1.8l1.4-0.1c1-0.1,1.6,0.4,1.7,1.5l1.1,11.5c0.1,1.1-0.4,1.7-1.4,1.8L52,169.7
					c-1,0.1-1.6-0.4-1.7-1.5l-1.1-11.5c-0.1-1.1,0.4-1.7,1.4-1.8l1.4-0.1c1-0.1,1.6,0.4,1.7,1.5L54.4,163.8z"/>
				<path class="st2" d="M66.9,151.7l-16.3-8.5c-0.8-0.4-1.1-1.1-1-2l0.2-2.4c0.1-0.9,0.5-1.5,1.4-1.8l17.6-5.5
					c1.1-0.3,1.8,0.2,1.6,1.4l-0.2,2.5c-0.1,0.9-0.5,1.5-1.4,1.8l-2.4,0.7l-0.7,7.3l2.2,1.1c0.8,0.4,1.1,1,1,2l-0.2,2.3
					C68.6,151.8,67.9,152.3,66.9,151.7z M62.2,138.6l-7.1,1.9l6.6,3.3L62.2,138.6z"/>
				<path class="st2" d="M69.8,129.5l-16.1-4.9c-1-0.3-1.3-1-1-2l0.7-2.2c0.3-1,1-1.4,2-1.1l13.3,4.1l2.3-7.6c0.3-1,1-1.4,2-1.1
					l1.3,0.4c1,0.3,1.3,1,1,2l-3.5,11.4C71.4,129.4,70.7,129.8,69.8,129.5z"/>
				<path class="st2" d="M72.4,112.8c-1-0.1-1.4-0.9-1.1-1.9l0.4-1.5c0.3-0.9,0.8-1.2,1.8-1.3c1.2-0.1,2.3-0.9,3-2.3
					c0.8-1.6,0.8-2.9-0.2-3.5c-0.7-0.3-1.5-0.2-2.7,0.9l-2,1.9c-1.3,1.3-4.6,4.2-7.9,2.6c-3.3-1.8-3.8-5.9-1.7-9.8
					c1.6-2.9,3.8-4.3,6.4-4.4c1.1,0,1.5,0.7,1.3,1.8l-0.3,1.4c-0.2,1-0.8,1.3-1.7,1.5c-0.8,0.1-1.5,0.6-2,1.5
					c-0.6,1.1-0.6,2.4,0.3,2.9c0.6,0.3,1.3,0.3,2.6-0.9l2-1.9c3.3-3.2,5.8-3.7,8.2-2.5c3.6,1.9,3.6,6.2,1.4,10.3
					C78.2,111.2,75.4,113,72.4,112.8z"/>
			</g>
			<path class="st2" d="M86.2,68.4l0.2,0.2c0.3,0.3,0.3,0.7,0,1.1l-4.6,4.8l12.5,12c0.3,0.3,0.3,0.8,0,1.1l-0.5,0.5
				c-0.4,0.4-0.8,0.4-1.1,0.1l-12.5-12L75.6,81c-0.4,0.4-0.8,0.4-1.1,0.1l-0.2-0.2c-0.3-0.3-0.3-0.8,0-1.1L85,68.5
				C85.4,68.1,85.8,68.1,86.2,68.4z"/>
			<path class="st2" d="M101.6,79.5L91.6,64c-0.3-0.4-0.2-0.8,0.3-1.1l0.6-0.4c0.4-0.3,0.8-0.2,1.1,0.2l4.7,7.4l9.2-5.9l-4.7-7.4
				c-0.3-0.4-0.2-0.8,0.3-1.1l0.6-0.4c0.4-0.3,0.8-0.2,1.1,0.2l10,15.5c0.3,0.4,0.2,0.8-0.3,1.1l-0.6,0.4c-0.4,0.3-0.8,0.2-1.1-0.2
				l-4.2-6.6l-9.2,5.9l4.2,6.6c0.3,0.4,0.2,0.8-0.3,1.1l-0.6,0.4C102.3,80,101.9,79.9,101.6,79.5z"/>
			<path class="st2" d="M117.4,69.4l1.6-19.9c0-0.5,0.3-0.7,0.7-0.9l1.4-0.5c0.4-0.1,0.8-0.1,1.1,0.3l13.2,15.1
				c0.4,0.4,0.2,0.8-0.3,1l-0.7,0.2c-0.5,0.2-0.8,0.1-1.1-0.3l-2.6-3L120,65l-0.3,3.9c0,0.5-0.2,0.7-0.7,0.9l-0.7,0.2
				C117.7,70.3,117.4,70,117.4,69.4z M129.3,60l-8.3-9.6L120.1,63L129.3,60z"/>
			<path class="st2" d="M148.4,43.8l0,0.3c0.1,0.5-0.2,0.8-0.7,0.8l-6.6,0.8l2.2,17.2c0.1,0.5-0.2,0.8-0.7,0.9l-0.8,0.1
				c-0.5,0.1-0.9-0.2-0.9-0.7l-2.2-17.2l-6.5,0.8c-0.5,0.1-0.9-0.2-0.9-0.6l0-0.3c-0.1-0.5,0.2-0.8,0.7-0.9l15.5-1.9
				C148,43,148.3,43.3,148.4,43.8z"/>
			<path class="st2" d="M158.7,61.1l5.8-16c0.3-0.9,1-1.2,2-1l2.4,0.6c0.9,0.2,1.4,0.7,1.5,1.6l1.9,12.1l7.5-9.7
				c0.6-0.7,1.2-0.9,2.1-0.7l2.4,0.6c1,0.2,1.4,0.9,1.3,1.8l-2.5,16.8c-0.1,1.1-0.8,1.5-1.9,1.2l-2.2-0.6c-1-0.3-1.5-0.9-1.3-1.8
				l1.5-9.2l-6.1,8c-0.5,0.7-1.2,1-2.1,0.7l-0.9-0.2c-0.9-0.2-1.4-0.7-1.5-1.7l-1.5-9.9l-3.1,8.8c-0.3,0.9-1,1.2-2,1l-2.2-0.6
				C158.8,62.8,158.4,62.1,158.7,61.1z"/>
			<path class="st2" d="M184.6,68.3l14.7-11c0.7-0.5,1.4-0.5,2.3,0l2,1.2c0.8,0.5,1.1,1.1,1,2L202,78.7c-0.2,1.1-1,1.5-2,0.9
				l-2.1-1.3c-0.8-0.5-1.1-1.1-1-2l0.4-2.5l-6.3-3.7l-2,1.5c-0.7,0.6-1.4,0.6-2.2,0.1l-2-1.2C183.8,69.9,183.7,69,184.6,68.3z
				 M198.5,69.8l1.3-7.2l-5.8,4.5L198.5,69.8z"/>
			<path class="st2" d="M224.5,77l-0.9,1c-0.7,0.7-1.5,0.8-2.3,0l-3.3-3l-9.4,10.3c-0.7,0.7-1.5,0.8-2.3,0l-1.6-1.5
				c-0.8-0.7-0.9-1.5-0.2-2.2l9.3-10.3l-3.2-2.9c-0.8-0.7-0.9-1.5-0.2-2.2l0.9-1c0.7-0.7,1.5-0.8,2.3,0l10.6,9.6
				C225.1,75.4,225.2,76.2,224.5,77z"/>
			<path class="st2" d="M237.6,94.1l-1.1,0.8c-0.8,0.6-1.6,0.4-2.2-0.4l-2.7-3.6l-11.2,8.3c-0.8,0.6-1.6,0.4-2.2-0.4l-1.3-1.8
				c-0.6-0.9-0.5-1.6,0.3-2.2l11.2-8.3l-2.6-3.5c-0.6-0.9-0.5-1.6,0.3-2.2l1.1-0.8c0.8-0.6,1.6-0.4,2.2,0.4l8.5,11.5
				C238.5,92.7,238.4,93.5,237.6,94.1z"/>
			<path class="st2" d="M240,105.1l-3.2,1.5l2.7,5.7c0.5,1,0.2,1.7-0.7,2.2l-0.9,0.4c-0.9,0.4-1.7,0.1-2.1-0.9l-2.7-5.7l-3.1,1.5
				l3.2,6.8c0.5,1,0.2,1.7-0.7,2.1l-1.3,0.6c-0.9,0.4-1.6,0.1-2.1-0.8l-4.9-10.4c-0.5-1-0.2-1.7,0.7-2.1l15.3-7.2
				c0.9-0.4,1.6-0.1,2.1,0.8l4.9,10.4c0.5,1,0.2,1.7-0.7,2.1l-1.3,0.6c-0.9,0.4-1.6,0.1-2.1-0.8L240,105.1z"/>
			<path class="st2" d="M239.4,128.5l-0.5-2.1l-5.2,1.3c-1,0.2-1.6-0.2-1.9-1.2l-0.5-2.3c-0.2-1,0.1-1.7,1.1-2l16.4-3.9
				c1-0.2,1.6,0.2,1.9,1.2l1.9,8.1c1.1,4.6-1.3,7.9-4.9,8.7c-2.9,0.7-5.4-0.4-6.8-3.1c-1.8,0.7-3,2.1-2.7,3.6
				c0.1,0.6,0.3,0.9,0.5,1.3c0.5,0.9,0.4,1.2-0.4,1.9l-0.6,0.5c-0.7,0.6-1.5,0.7-2.1-0.1c-0.8-1-1.4-2.2-1.7-3.6
				C232.7,131.6,237.4,129.2,239.4,128.5z M243.3,129.2c0.3,1.4,1.7,2,2.9,1.7c1.3-0.3,2.2-1.5,1.8-2.9l-0.9-3.6l-4.7,1.1
				L243.3,129.2z"/>
		</g>
		<g>
			<path class="st2" d="M249.1,139.6v1.8h-0.3l0-1.8h-0.7v-0.3h1.7v0.3H249.1z M252.2,141.4v-1.7h0l-0.7,1.7h-0.2l-0.7-1.7h0v1.7
				h-0.3v-2.1h0.5l0.6,1.6l0.6-1.6h0.5l0,2.1H252.2z"/>
		</g>
	</g>
	<g>
		<path class="st3" d="M249.4,168c-6.6,12.8-18.7,19-42.6,24.3c-12.1,2.7-37,3.3-42.4,3.7c-5.4,0.4-24.4,0.7-42.5,6.7
			c-22.2,7.3-34.6,19.3-42.7,32.5c5.1-5.3,16-17.3,42.6-23.5c19.1-4.5,29.8-4.5,42.4-4.8c11.1-0.2,28.3-1.4,42.4-5
			C238.3,193.8,246.9,177.7,249.4,168z"/>
	</g>
	<g>
		<path class="st2" d="M197.7,105c-8.2,0-14.8,9.1-14.8,20.3c0,7.3,2.8,13.7,7.1,17.3c2.3,1.9,3.8,4.7,4.2,7.7
			c0.9,7.2,0.5,17.4-2.3,44c-0.3,3.2,11.9,1.7,11.5-2c-2.6-25.1-3-35-2.1-42c0.4-3,1.9-5.7,4.2-7.7c4.2-3.6,7.1-10,7.1-17.3
			C212.5,114,205.9,105,197.7,105z"/>
		<path class="st2" d="M114.5,128.3L114.5,128.3c-1.1,0-1.9,0.8-1.9,1.8c0,0,0,0,0,0v24.1c0,0.9-0.6,1.7-1.5,1.8
			c-1,0.2-1.9-0.5-2-1.4c0-0.1,0-0.2,0-0.3v-24.1c0-0.9-0.6-1.7-1.5-1.8c-1-0.2-1.9,0.5-2,1.4c0,0.1,0,0.2,0,0.3v24.1
			c0,0.9-0.6,1.7-1.5,1.8c-1,0.2-1.9-0.5-2-1.4c0-0.1,0-0.2,0-0.3v-24.1c0-0.9-0.6-1.7-1.5-1.8c-1-0.2-1.9,0.5-2,1.4
			c0,0.1,0,0.2,0,0.3v24.1c0,0.9-0.6,1.7-1.5,1.8c-1,0.2-1.9-0.5-2-1.4c0-0.1,0-0.2,0-0.3v-24.2c0-1-0.8-1.8-1.8-1.8h-0.1
			c-0.9,0-1.7,0.7-1.8,1.7c-0.2,4.6-0.8,17.8-0.8,26.1c0,4.6,2.5,8.9,6.6,11.1c1.4,0.7,2.4,2.1,2.7,3.6c1.2,6.3,1.3,13.9-0.6,34.2
			c-2.3,24.7,2.3,7.2,4.6,7.2c2.9,0,6.3,10.7,4.6-8c-1.8-19.8-1.8-27.2-0.5-33.4c0.3-1.6,1.3-2.9,2.7-3.6c4-2.3,6.6-6.5,6.6-11.1
			c0-8.3-0.6-21.4-0.8-26.1C116.2,129.1,115.4,128.3,114.5,128.3z"/>
	</g>
	<g>
		<g>
			<g>
				
					<rect x="184.3" y="178.2" transform="matrix(0.9999 -1.387457e-02 1.387457e-02 0.9999 -2.5743 2.588)" class="st2" width="2" height="17.3"/>
				<path class="st2" d="M119.6,205.4l-0.3-24.8c0-0.4,0.2-1.1,0.4-1.4l13.9-22.1l12.9,20.9c0.2,0.4,0.4,1.1,0.4,1.5l0.3,19.8l2,0
					l-0.3-19.8c0-0.8-0.3-1.8-0.7-2.5L135,155.7c-0.7-1.1-2.2-1.1-2.8,0L118,178.1c-0.4,0.7-0.7,1.7-0.7,2.5l0.3,24.8L119.6,205.4z"
					/>
			</g>
		</g>
		<path class="st3" d="M186,178l-13.9-22c-0.3-0.5-1.1-0.9-1.7-0.9l-7,0l-1.6,0l-2.2,0l-3,0l-2.3,0l-1.7,0l-4.9,0l-1.5,0l-2.4,0
			l-9.8-0.1c-0.6,0-0.8,0.4-0.5,0.9l13.7,22.9c0.3,0.5,1,0.9,1.6,0.9l36.6-0.6C186.1,178.9,186.4,178.5,186,178z"/>
	</g>
</g>
</svg>
