<?xml version="1.0" encoding="utf-8"?>
<!-- Generator: Adobe Illustrator 23.0.6, SVG Export Plug-In . SVG Version: 6.00 Build 0)  -->
<svg version="1.1" id="MTM" xmlns="http://www.w3.org/2000/svg" xmlns:xlink="http://www.w3.org/1999/xlink" x="0px" y="0px"
	 viewBox="0 0 720 720" style="enable-background:new 0 0 720 720;" xml:space="preserve">
<style type="text/css">
	.st0{fill:#107A3E;}
	.st1{fill:#FFFFFF;}
</style>
<g>
	<circle class="st0" cx="369.5" cy="362.4" r="312.7"/>
	<path class="st1" d="M547.7,484.1c-17.3,4.3-42.5,7.5-67,9.9c-4.2-56-7.2-109.4-4.9-126.6c2.3-17.4,11-33.4,24.4-44.7
		c24.6-20.8,41.1-58.1,41.1-100.7c0-65.3-38.6-118.3-86.3-118.3c-47.7,0-86.3,53-86.3,118.3c0,42.6,16.4,79.9,41.1,100.7
		c13.4,11.3,22.1,27.3,24.4,44.7c2.2,17.2-0.9,72.1-5.4,130.9c-11.1,0.8-19.7,1.4-24.3,1.9c-14.5,1.6-58.1,3.5-105.8,15.2
		c-0.3-24.3,0.3-44.7,2.2-54.6c1.9-9.1,7.7-16.8,15.9-21.2c23.5-13.1,38.1-38.1,38.1-65.1c0-48.6-3.5-125.2-4.8-152.2
		c-0.3-5.5-4.8-9.8-10.3-9.8h-0.5c-5.7,0-10.3,4.6-10.3,10.3c0,0,0,0,0,0v140.8c0.1,5.2-3.5,9.7-8.6,10.7c-5.6,1-10.9-2.8-11.9-8.5
		c-0.1-0.6-0.1-1.1-0.1-1.7V223.2c0.1-5.2-3.5-9.7-8.6-10.7c-5.6-1-10.9,2.8-11.9,8.5c-0.1,0.6-0.1,1.1-0.1,1.7v140.8
		c0.1,5.2-3.5,9.7-8.6,10.7c-5.6,1-10.9-2.8-11.9-8.5c-0.1-0.6-0.1-1.1-0.1-1.7V223.2c0.1-5.2-3.5-9.7-8.6-10.7
		c-5.6-1-10.9,2.8-11.9,8.5c-0.1,0.6-0.1,1.1-0.1,1.7v140.8c0.1,5.2-3.5,9.7-8.6,10.7c-5.6,1-10.9-2.8-11.9-8.5
		c-0.1-0.6-0.1-1.1-0.1-1.7V222.6c0-5.7-4.6-10.3-10.3-10.3h-0.5c-5.5,0-10,4.3-10.3,9.8c-1.3,27-4.8,103.7-4.8,152.2
		c0,27,14.6,51.9,38.1,65.1c8.1,4.4,14,12.1,15.9,21.2c2.4,12.2,2.8,38.3,2.3,67.5c-44,16.5-76,38.4-100.2,63.1
		c2.8,2.7,5.7,5.3,8.7,7.8c21.2-14.5,50.2-29.4,90.7-40.6c-1.4,42.8-3.9,84.5-4.5,93.6c16.3,6.9,34.5,12.6,54,16.5
		c-0.7-11.2-4.3-68-6-120.4c42.3-8.5,71.9-9.5,105.6-11c6.4-0.3,13.4-0.7,20.8-1.2c-5.3,64.2-11.3,124.3-12.4,136.2
		c28.4-4,55.5-11.7,80.9-22.8c-1.1-11.4-6.1-63.1-10.7-119.6c21.9-3.2,44.3-7.4,64.7-13.1c70.5-19.9,106.6-51.1,125.1-79.5
		c1.3-5,2.8-11.3,3.8-17.6C653.4,450,614.2,467.6,547.7,484.1z"/>
</g>
</svg>
