<?xml version="1.0" encoding="utf-8"?>
<!-- Generator: Adobe Illustrator 23.1.1, SVG Export Plug-In . SVG Version: 6.00 Build 0)  -->
<svg version="1.1" id="Layer_1" xmlns="http://www.w3.org/2000/svg" xmlns:xlink="http://www.w3.org/1999/xlink" x="0px" y="0px"
	 viewBox="0 0 220.4 231" style="enable-background:new 0 0 220.4 231;" xml:space="preserve">
<style type="text/css">
	.st0{fill:#00893F;}
	.st1{fill:#FFFDF6;}
	.st2{fill:#FFFEF2;}
	.st3{fill:#FFD230;}
	.st4{clip-path:url(#SVGID_2_);}
	.st5{fill-rule:evenodd;clip-rule:evenodd;fill:#00893F;}
</style>
<title>Restaurant</title>
<g>
	<g>
		<g>
			<path class="st0" d="M52.6,157.1L38.2,161c-0.8,0.2-1.4-0.1-1.7-0.9l-0.8-2.1c-0.3-0.7-0.2-1.4,0.4-1.9l7.7-7.5L33,148.1
				c-0.8,0-1.3-0.4-1.6-1.2l-0.8-2.1c-0.3-0.8-0.1-1.5,0.7-1.8l13.3-6.7c0.8-0.4,1.5-0.1,1.8,0.8l0.7,1.9c0.3,0.8,0.1,1.5-0.7,1.9
				l-7.3,3.6l8.8,0.3c0.8,0,1.3,0.4,1.6,1.2l0.3,0.8c0.3,0.8,0.2,1.4-0.4,1.9l-6.4,6.1l7.8-2.2c0.8-0.2,1.4,0.1,1.7,1l0.7,1.8
				C53.7,156.1,53.5,156.8,52.6,157.1z"/>
			<path class="st0" d="M31.8,130.9l3.1-0.4l-0.6-5.5c-0.1-0.9,0.3-1.5,1.2-1.6l0.8-0.1c0.9-0.1,1.4,0.4,1.5,1.3l0.6,5.5l3-0.3
				l-0.8-6.6c-0.1-0.9,0.3-1.5,1.2-1.6l1.2-0.1c0.9-0.1,1.4,0.3,1.5,1.3l1.2,10c0.1,0.9-0.3,1.5-1.2,1.6l-14.8,1.7
				c-0.9,0.1-1.4-0.3-1.5-1.3l-1.2-10c-0.1-0.9,0.3-1.5,1.2-1.6l1.2-0.1c0.9-0.1,1.4,0.3,1.5,1.3L31.8,130.9z"/>
			<path class="st0" d="M42.5,120L28,112.9c-0.7-0.3-1-0.9-0.9-1.8l0.1-2.1c0.1-0.8,0.4-1.3,1.2-1.6l15.4-5.2c1-0.3,1.5,0.2,1.5,1.2
				l-0.2,2.2c-0.1,0.8-0.4,1.3-1.2,1.6l-2.1,0.7l-0.5,6.4l2,0.9c0.7,0.3,1,0.9,1,1.7l-0.1,2.1C44,120.1,43.4,120.5,42.5,120z
				 M38.1,108.6l-6.2,1.8l5.8,2.8L38.1,108.6z"/>
			<path class="st0" d="M44.6,100.4l-14.3-4c-0.8-0.2-1.2-0.9-0.9-1.8l0.6-2c0.2-0.9,0.8-1.3,1.7-1L43.4,95l1.9-6.7
				c0.3-0.9,0.8-1.3,1.7-1l1.2,0.3c0.8,0.2,1.2,0.9,0.9,1.8l-2.8,10.1C46,100.3,45.4,100.7,44.6,100.4z"/>
			<path class="st0" d="M46.5,85.7c-0.9-0.1-1.2-0.8-1-1.7l0.3-1.3c0.2-0.8,0.7-1.1,1.6-1.2c1-0.1,2-0.8,2.6-2.1
				c0.7-1.4,0.7-2.6-0.3-3c-0.6-0.3-1.3-0.2-2.4,0.9l-1.7,1.7c-1.1,1.2-4,3.8-6.9,2.4c-2.9-1.5-3.5-5.1-1.7-8.6
				c1.3-2.6,3.3-3.9,5.5-4c1-0.1,1.3,0.6,1.2,1.5l-0.3,1.3c-0.2,0.8-0.7,1.1-1.5,1.3c-0.7,0.1-1.3,0.6-1.7,1.4
				c-0.5,1-0.5,2.1,0.3,2.6c0.5,0.2,1.2,0.2,2.2-0.9l1.7-1.7c2.9-2.9,5.1-3.4,7.2-2.4c3.2,1.6,3.3,5.4,1.5,9
				C51.6,84.2,49.2,85.9,46.5,85.7z"/>
		</g>
		<path class="st0" d="M57.8,46.4l0.2,0.2c0.3,0.3,0.3,0.6,0,1L54,51.8l11.2,10.3c0.3,0.3,0.3,0.7,0,1l-0.5,0.5
			c-0.3,0.3-0.7,0.4-1,0.1L52.6,53.4l-3.9,4.3c-0.3,0.3-0.7,0.4-1,0.1l-0.2-0.2c-0.3-0.3-0.3-0.7,0-1l9.3-10.1
			C57.1,46.1,57.5,46.1,57.8,46.4z"/>
		<path class="st0" d="M71.6,55.8l-9.1-13.4c-0.2-0.4-0.2-0.7,0.2-1l0.6-0.4c0.4-0.3,0.7-0.2,1,0.2l4.3,6.4l7.9-5.4l-4.3-6.4
			c-0.2-0.4-0.2-0.7,0.2-1l0.6-0.4c0.4-0.3,0.7-0.2,1,0.2L83,48.1c0.2,0.4,0.2,0.7-0.2,1l-0.6,0.4c-0.4,0.3-0.7,0.2-1-0.2l-3.9-5.7
			L69.5,49l3.9,5.7c0.2,0.4,0.2,0.7-0.2,1L72.6,56C72.2,56.2,71.8,56.2,71.6,55.8z"/>
		<path class="st0" d="M85.2,46.6l1-17.6c0-0.4,0.2-0.7,0.6-0.8l1.2-0.4c0.4-0.1,0.7-0.1,1,0.2l11.9,13c0.3,0.4,0.2,0.7-0.3,0.9
			l-0.6,0.2c-0.4,0.1-0.7,0.1-1-0.2l-2.3-2.6l-9.2,3.3l-0.2,3.5c0,0.4-0.2,0.7-0.6,0.8L86,47.2C85.5,47.4,85.2,47.2,85.2,46.6z
			 M95.5,38.1L88,29.8l-0.5,11.1L95.5,38.1z"/>
		<path class="st0" d="M112,23.4l0,0.3c0.1,0.4-0.2,0.7-0.6,0.8l-5.7,0.9l2.2,15.1c0.1,0.4-0.2,0.7-0.6,0.8l-0.7,0.1
			c-0.5,0.1-0.8-0.1-0.8-0.6l-2.2-15.1l-5.7,0.9c-0.5,0.1-0.8-0.1-0.8-0.5l0-0.3c-0.1-0.4,0.2-0.7,0.6-0.8l13.6-2
			C111.6,22.8,111.9,23,112,23.4z"/>
		<path class="st0" d="M121.4,38.5l4.8-14.1c0.3-0.8,0.9-1.1,1.7-0.9l2.2,0.5c0.8,0.2,1.2,0.6,1.4,1.4l1.9,10.6l6.4-8.7
			c0.5-0.6,1-0.8,1.9-0.7l2.2,0.5c0.9,0.2,1.3,0.8,1.1,1.6l-1.9,14.8c-0.1,0.9-0.7,1.3-1.7,1.1l-2-0.4c-0.9-0.2-1.3-0.8-1.2-1.6
			l1.1-8.1l-5.2,7.2c-0.5,0.7-1.1,0.9-1.9,0.7l-0.8-0.2c-0.8-0.2-1.3-0.6-1.4-1.4l-1.5-8.7l-2.5,7.8c-0.3,0.8-0.9,1.1-1.8,0.9
			l-1.9-0.4C121.5,39.9,121.1,39.3,121.4,38.5z"/>
		<path class="st0" d="M144.3,44.3l12.7-10c0.6-0.5,1.3-0.5,2-0.1l1.8,1c0.7,0.4,1,1,0.9,1.7l-1.9,16.1c-0.1,1-0.8,1.3-1.7,0.8
			l-1.9-1.1c-0.7-0.4-1-1-0.9-1.7l0.3-2.2l-5.6-3.2l-1.7,1.4c-0.6,0.5-1.2,0.5-2,0.1l-1.8-1C143.6,45.7,143.5,44.9,144.3,44.3z
			 M156.6,45.3l1-6.4l-5,4.1L156.6,45.3z"/>
		<path class="st0" d="M179.6,51.1l-0.8,0.9c-0.6,0.7-1.3,0.7-2,0.1l-3-2.6l-8,9.3c-0.6,0.7-1.3,0.7-2,0.1l-1.5-1.3
			c-0.7-0.6-0.8-1.3-0.2-2l8-9.3l-2.9-2.5c-0.7-0.6-0.8-1.3-0.2-2l0.8-0.9c0.6-0.7,1.3-0.7,2-0.1l9.5,8.2
			C180.1,49.7,180.2,50.4,179.6,51.1z"/>
		<path class="st0" d="M191.5,65.9l-1,0.8c-0.7,0.5-1.4,0.4-2-0.3l-2.4-3.1l-9.7,7.5c-0.7,0.5-1.4,0.4-2-0.3l-1.2-1.5
			c-0.6-0.7-0.5-1.4,0.2-2l9.7-7.5l-2.3-3c-0.6-0.7-0.5-1.4,0.2-2l1-0.8c0.7-0.5,1.4-0.4,2,0.3l7.7,10
			C192.2,64.7,192.1,65.4,191.5,65.9z"/>
		<path class="st0" d="M193.7,75.6l-2.8,1.4l2.5,5c0.4,0.8,0.2,1.5-0.6,1.9l-0.7,0.4c-0.8,0.4-1.5,0.1-1.9-0.7l-2.5-5l-2.7,1.3
			l3,5.9c0.4,0.8,0.2,1.5-0.6,1.9l-1.1,0.6c-0.8,0.4-1.4,0.1-1.9-0.7l-4.5-9.1c-0.4-0.8-0.2-1.5,0.6-1.9l13.3-6.6
			c0.8-0.4,1.4-0.2,1.9,0.7l4.5,9.1c0.4,0.8,0.2,1.5-0.6,1.9l-1.1,0.5c-0.8,0.4-1.4,0.2-1.9-0.7L193.7,75.6z"/>
		<path class="st0" d="M193.7,96.1l-0.5-1.9l-4.6,1.2c-0.8,0.2-1.4-0.2-1.7-1.1l-0.5-2c-0.2-0.9,0.1-1.5,0.9-1.7l14.4-3.8
			c0.8-0.2,1.4,0.1,1.7,1l1.9,7.1c1.1,4-1,6.9-4.1,7.8c-2.5,0.7-4.8-0.3-6.1-2.5c-1.6,0.7-2.6,1.9-2.3,3.2c0.1,0.5,0.3,0.8,0.5,1.1
			c0.5,0.8,0.4,1.1-0.3,1.7l-0.5,0.5c-0.6,0.6-1.3,0.6-1.9,0c-0.7-0.8-1.2-1.9-1.6-3.1C187.9,98.9,192,96.8,193.7,96.1z M197.2,96.6
			c0.3,1.2,1.5,1.7,2.6,1.4c1.1-0.3,1.9-1.4,1.6-2.5l-0.8-3.2l-4.1,1.1L197.2,96.6z"/>
	</g>
	<g>
		<defs>
			<path id="XMLID_25_" d="M171.5,126.6c0-0.4-0.4-0.7-0.8-0.1c-6.4,9.3-28.2,11.6-50.5,11.8c-18,0.1-31.1,3.3-41.2,9.3
				c-10,6-14.8,13.6-14.7,26.5l0.3,41.7c0,0.4,0.4,0.6,0.8,0.1c7.3-9,30-15.7,53.4-15.8c17.4-0.1,29.5-2.2,37.8-7.2
				c10.9-6.6,15.3-18.1,15.2-33.8L171.5,126.6z"/>
		</defs>
		<use xlink:href="#XMLID_25_"  style="overflow:visible;fill:#00893F;"/>
		<clipPath id="XMLID_2_">
			<use xlink:href="#XMLID_25_"  style="overflow:visible;"/>
		</clipPath>
	</g>
	<g>
		<path class="st1" d="M161.8,180.5c0.2,0,0.3-0.2,0.3-0.3c0-0.2-0.1-0.4-0.4-0.3l-0.4,0c0,0,0,0,0,0.1l0,1c0,0,0,0,0.1,0l0.1,0
			c0,0,0,0,0-0.1l0-0.3l0.2,0l0.3,0.4c0,0,0,0,0,0l0.1,0c0,0,0,0,0-0.1l0,0c0,0,0,0,0,0L161.8,180.5z M161.6,180.5L161.6,180.5
			L161.6,180.5L161.6,180.5L161.6,180.5z M161.4,180.4l0-0.4l0.3,0c0.1,0,0.2,0.1,0.2,0.2c0,0,0,0.1,0,0.1c0,0-0.1,0.1-0.1,0.1
			L161.4,180.4z"/>
		<path class="st1" d="M161.6,179.2c-0.8,0-1.2,0.6-1.2,1.2c0,0.6,0.4,1.2,1.2,1.2c0.8,0,1.2-0.6,1.2-1.2
			C162.7,179.8,162.3,179.2,161.6,179.2z M161.6,181.4c-0.6,0-0.9-0.4-0.9-1c0-0.6,0.4-1,0.9-1c0.6,0,0.9,0.4,0.9,1
			C162.5,181,162.2,181.4,161.6,181.4z"/>
		<path class="st2" d="M163.7,173c-0.4-0.3-0.8-0.1-1.3,0.6c-2.2,3-3.9,4.2-5.2,4.2c-1,0-1.5-0.8-1.1-2.3c0.3-1,1-2.2,1.7-3.9
			c0.6-1.6,0.3-2.9-0.7-3.7c-0.8-0.6-2.3-1-3.2-1.4c0.7-1.6-0.2-3.3-2-3.3c-1.7,0-2.8,1.4-2.8,2.9c0,1.1,0.6,2,1.9,2.5
			c-3.1,6.2-6.2,9.3-8.2,9.3c-1.1,0-1.4-1-0.9-2.5c0.5-1.3,1.9-3.8,2.3-5c0.3-1.2,0.1-2.3-1-3c-0.6-0.4-1.6-0.7-2.1-0.9
			c0.5-1.4-0.1-3.3-2.1-3.3c-1.7,0-2.8,1.4-2.8,2.9c0,1.2,0.7,2,1.8,2.4c-0.7,1-1.8,1.4-2.7,1.5c-0.5,0-0.9,0-1.2-0.2
			c-0.3-0.1-0.5-0.4-0.9-1c-0.8-1.6-2.1-2.5-4.1-2.5c-1.5,0-3,0.5-4.7,1.6c-1.2,0.9-2.3,1.9-3.6,3.6c-1.3,1.7-2.1,2.8-3,3.7
			c-1.4,1.5-2.7,2.3-3.7,2.6c-0.6,0.1-1.1,0.1-1.3-0.3c-0.2-0.4-0.2-0.9,0.1-1.6c0.6-1.6,2.5-4.5,3-6.3c0.5-1.8-0.3-3.3-2.2-3.2
			c-2,0-4.2,1-6.4,3c0.4-1.6-0.2-2.7-1.3-2.9c-2-0.5-4.4,0.9-6.6,3.4c-1.6,1.8-3.6,4.3-5.3,5.9c-1.7,1.6-2.9,2-4.2,1.8
			c-2.8-0.3-3.7-5.2-6.3-6.9c3.3,0,7.1-0.9,9.8-2.5c3.1-1.9,3.9-3,6.7-5.8c2.4-2.4,4.5-3.8,7.2-4.2c0.6-0.1,1-0.3,1-0.7
			c0-0.4-0.2-0.6-0.8-0.7c-2.6-0.3-6,0.4-9,2.1c-3.2,1.9-5.2,4.2-8.7,6.9c-1.3,1-2.4,1.8-3.8,2.4c-1.2,0.5-2.5,0.8-3.6,0.7
			c1.1-2.3,2.4-4.8,3.3-6.7c3,0,4.9-2,4.8-3.7c0-1.3-1.1-2.2-2.6-2.2c-1.9,0-3.5,1-4.8,2.7c-6.9-0.6-11.7,2.1-13.4,6.8
			c-0.2,0.5-0.3,0.8-0.3,1.1c0,0.2,0.1,0.4,0.3,0.4c0.2,0.1,0.4,0.1,0.6,0c0.2-0.1,0.3-0.3,0.6-0.6c2.1-3.3,5.3-4.9,10.5-4.5
			c-0.5,0.7-1.8,3.2-3.4,6.3c-1.3-0.3-2.7-0.1-3.1,1.2c-0.3,1,0.3,1.9,1.5,1.9c-2.1,4-4.1,7.9-4.6,8.9c-0.5,1-0.3,1.6,0.6,1.6
			c1-0.1,2.8-0.6,3.7-1.1c0.7-0.4,0.9-0.7,1.4-1.9c1-2.1,2.3-4.7,3.4-7.1c1.1,0.7,1.5,3.7,2.2,5.7c1.2,3,2.8,4.1,5.1,4.1
			c2.4,0,4.1-0.9,6.3-3.5c3.6-4.3,5.5-7.2,7.3-8.5c0.5-0.4,0.9-0.5,1.1-0.4c0.3,0.2,0.2,0.6,0,1.2c-1.3,2.8-4.6,8.9-4.9,9.7
			c-0.4,1-0.2,1.6,0.6,1.5c0.6-0.1,0.9-0.1,1.7-0.4c0.8-0.2,1.7-0.6,2.2-1.4c0.4-0.7,0.6-1.1,0.8-1.7c0.7-1.4,0.9-2.1,2.1-4
			c2.1-3.4,4.5-5,5.6-4.8c0.3,0.1,0.5,0.4,0.3,0.9c-0.1,0.3-0.3,0.7-0.5,1.2c-1.3,2.4-2.8,4.5-3.2,6.6c-0.3,2,0.8,3.4,2.7,3.4
			c2.7,0,5.7-2.1,8.8-5.7c-0.6,3.3,1.2,5.7,4.6,5.6c2.1,0,4.3-0.8,6.2-2.7c1.8-1.8,3.2-4.3,3.5-7c1.5,0.4,4-0.6,5.7-2.7
			c0.8,0.5,0.9,1,0.6,1.8c-0.4,1.2-0.9,1.9-1.8,3.5c-0.9,1.6-1.3,2.9-1.2,4.3c0.2,1.6,1.3,2.7,3.2,2.7c4.2,0,8.1-3.9,12.3-12.4
			c1.4,0.5,1.6,1.2,1.4,2.2c-0.2,1-0.7,1.9-1.5,3.3c-0.7,1.4-1.1,2.4-1.1,3.6c0,1.8,1.2,3.1,3.4,3.1c2.9,0,6.3-2.8,8.7-6.7
			C164,173.8,164.1,173.2,163.7,173z M128.8,174c-1.5,3.6-3.1,5.2-4.3,5.2c-1.3,0-1.8-1.4-0.4-4.9c1.1-3,3.1-5.4,4.5-5.4
			C129.7,168.8,130.4,169.9,128.8,174z"/>
	</g>
	<g>
		<path class="st3" d="M114.1,157.6c-0.1,0-0.3-0.1-0.6-0.1c-0.3,0-0.4-0.1-0.4-0.1c-0.1,0-0.1-0.1-0.1-0.1c0-0.1,0-0.1,0.1-0.2
			c0.1-0.1,0.2-0.1,0.3-0.1c0,0,0,0,0,0c0.3,0,0.6,0.1,0.8,0.3l0.1,0l0.3-0.5l0,0c-0.3-0.2-0.7-0.3-1.1-0.3c-0.3,0-0.5,0.1-0.7,0.2
			c-0.2,0.2-0.3,0.4-0.3,0.6c0,0.2,0,0.3,0.1,0.5c0.1,0.2,0.4,0.3,0.7,0.3c0.3,0,0.4,0,0.4,0c0.2,0,0.2,0.1,0.2,0.2
			c0,0.1,0,0.1-0.1,0.2c-0.1,0.1-0.2,0.1-0.4,0.1c-0.3,0-0.5-0.1-0.7-0.3l-0.1-0.1l-0.2,0.5l0,0c0.3,0.2,0.6,0.3,1,0.3
			c0.3,0,0.6-0.1,0.8-0.2c0.2-0.1,0.3-0.4,0.3-0.6c0-0.2-0.1-0.4-0.2-0.5C114.3,157.7,114.2,157.6,114.1,157.6z"/>
		
			<rect x="115.7" y="156.5" transform="matrix(1 -6.214013e-03 6.214013e-03 1 -0.9785 0.7237)" class="st3" width="0.6" height="2.6"/>
		<polygon class="st3" points="119.2,158 118,156.5 118,156.5 117.5,156.5 117.5,159.1 118.1,159.1 118,157.5 119.3,159.1 
			119.7,159.1 119.7,156.5 119.2,156.5 		"/>
		<path class="st3" d="M122.7,158.2c-0.2,0.2-0.5,0.3-0.8,0.3c-0.1,0-0.2,0-0.3-0.1c-0.1-0.1-0.3-0.1-0.3-0.3
			c-0.1-0.1-0.1-0.3-0.1-0.4c0-0.2,0-0.3,0.1-0.5c0.1-0.1,0.2-0.2,0.3-0.3c0.1,0,0.2-0.1,0.3-0.1c0.3,0,0.5,0.1,0.7,0.3l0.1,0.1
			l0.2-0.5l0-0.1l0,0c-0.3-0.2-0.6-0.3-1-0.3c-0.4,0-0.7,0.1-0.9,0.4c-0.2,0.2-0.3,0.6-0.3,0.9c0,0.4,0.1,0.7,0.4,1
			c0.2,0.2,0.5,0.3,0.9,0.3c0.2,0,0.4,0,0.6-0.1c0.2-0.1,0.4-0.2,0.5-0.3l0,0L122.7,158.2L122.7,158.2z"/>
		<polygon class="st3" points="124.5,158 125.5,158 125.5,157.5 124.5,157.5 124.5,157 126,157 126,156.5 124,156.5 124,159.1 
			126,159.1 126,158.5 124.6,158.5 		"/>
		<path class="st3" d="M129.3,156.5c0,0.1,0,0.2,0,0.2c0,0-0.1,0.1-0.2,0.1l0,0l0,0.5l0.1,0c0.1,0,0.1,0,0.2,0l0,1.8l0.5,0l0-2.6
			L129.3,156.5L129.3,156.5z"/>
		<path class="st3" d="M132.8,157.6c0.1-0.1,0.2-0.3,0.2-0.5c0-0.3-0.1-0.5-0.3-0.6c-0.2-0.1-0.4-0.2-0.7-0.2
			c-0.3,0-0.5,0.1-0.7,0.2c-0.2,0.1-0.3,0.4-0.3,0.6c0,0.1,0,0.2,0.1,0.3c0,0.1,0.1,0.1,0.1,0.2c-0.2,0.1-0.3,0.3-0.3,0.6
			c0,0.1,0,0.3,0.1,0.4c0.2,0.3,0.5,0.5,1,0.5c0.1,0,0.3,0,0.4,0c0.2,0,0.4-0.1,0.5-0.3c0.1-0.1,0.2-0.3,0.2-0.5
			c0-0.2,0-0.3-0.1-0.4C132.9,157.7,132.8,157.7,132.8,157.6z M132,156.9c0.2,0,0.4,0,0.4,0.1l0,0c0,0,0,0.1,0,0.1
			c0,0.1,0,0.2-0.5,0.3c-0.5,0-0.5-0.2-0.5-0.2C131.5,157.1,131.5,156.9,132,156.9z M132.3,158.5c-0.1,0.1-0.2,0.1-0.4,0.1
			c-0.1,0-0.3,0-0.4-0.1c-0.1-0.1-0.2-0.1-0.2-0.2c0-0.1,0.1-0.2,0.2-0.2c0.1-0.1,0.2-0.1,0.4-0.1c0.1,0,0.3,0,0.4,0.1
			c0.1,0.1,0.2,0.1,0.2,0.2C132.5,158.3,132.5,158.4,132.3,158.5z"/>
		<path class="st3" d="M138.8,157.7c0-0.1-0.1-0.1-0.1-0.1c0.1-0.1,0.2-0.3,0.2-0.5c0-0.3-0.1-0.5-0.3-0.6c-0.2-0.1-0.4-0.2-0.7-0.2
			c-0.3,0-0.5,0.1-0.7,0.2c-0.2,0.1-0.3,0.4-0.3,0.6c0,0.1,0,0.2,0.1,0.3c0,0.1,0.1,0.1,0.1,0.2c-0.2,0.1-0.3,0.3-0.3,0.6
			c0,0.1,0,0.3,0.1,0.4c0.2,0.3,0.5,0.5,1,0.5c0.1,0,0.3,0,0.4,0c0.2,0,0.4-0.1,0.5-0.3c0.1-0.1,0.2-0.3,0.2-0.5
			C138.9,158,138.9,157.9,138.8,157.7z M137.8,156.8c0.2,0,0.4,0,0.4,0.1l0,0c0,0,0,0.1,0,0.1c0,0.1,0,0.2-0.5,0.3
			c-0.5,0-0.5-0.2-0.5-0.2C137.4,157,137.4,156.8,137.8,156.8z M138.2,158.4c-0.1,0.1-0.2,0.1-0.4,0.1c-0.1,0-0.3,0-0.4-0.1
			c-0.1-0.1-0.2-0.1-0.2-0.2c0-0.1,0.1-0.2,0.2-0.2c0.1-0.1,0.2-0.1,0.4-0.1c0.1,0,0.3,0,0.4,0.1c0.1,0.1,0.2,0.1,0.2,0.2
			C138.4,158.3,138.3,158.4,138.2,158.4z"/>
		<path class="st3" d="M135.9,157.1c0-0.2-0.1-0.4-0.3-0.6c-0.2-0.1-0.4-0.2-0.6-0.2c-0.2,0-0.3,0-0.4,0.1c-0.1,0-0.3,0.1-0.4,0.2
			c-0.1,0.1-0.2,0.1-0.3,0.3l0.4,0.4c0.2-0.2,0.4-0.4,0.7-0.4c0.3,0,0.4,0.1,0.4,0.2c0,0.1,0,0.1-0.1,0.2c-0.1,0-0.2,0.1-0.3,0.1
			c-0.1,0-0.2,0-0.3,0l0,0.5c0.1,0,0.2,0,0.3,0c0.5,0,0.5,0.2,0.5,0.3c0,0.2,0,0.4-0.5,0.4c-0.2,0-0.3,0-0.5-0.1
			c-0.1-0.1-0.3-0.1-0.4-0.3l-0.1,0l-0.3,0.5l0,0c0.3,0.3,0.7,0.4,1.1,0.4c0,0,0,0,0,0c0.3,0,0.5-0.1,0.7-0.2
			c0.2-0.2,0.3-0.4,0.3-0.7c0-0.3-0.1-0.5-0.3-0.6C135.8,157.4,135.9,157.3,135.9,157.1z"/>
	</g>
	<g>
		<defs>
			<path id="SVGID_1_" d="M183.8,105.3c-4.1,26.5-66.6,57.9-93.1,53.8C64.1,155,45.9,130.2,50,103.8c4.1-26.5,29-44.6,55.6-40.5
				C132.1,67.4,187.9,78.9,183.8,105.3z"/>
		</defs>
		<clipPath id="SVGID_2_">
			<use xlink:href="#SVGID_1_"  style="overflow:visible;"/>
		</clipPath>
		<g class="st4">
			<path class="st5" d="M173.6,104.7c-4.1,8.1-11.8,12-27,15.4c-7.7,1.7-23.4,2.1-26.8,2.3c-3.4,0.3-15.4,0.5-26.8,4.2
				c-14,4.6-21.9,12.2-27,20.5c3.2-3.4,10.1-10.9,27-14.9c12.1-2.8,18.8-2.9,26.8-3c7-0.2,17.9-0.9,26.8-3.2
				C166.5,121,172,110.8,173.6,104.7z"/>
		</g>
	</g>
	<g>
		<path class="st0" d="M143.2,72.9c-4.7,0-8.5,5.2-8.5,11.6c0,4.2,1.6,7.9,4.1,9.9c1.3,1.1,2.2,2.7,2.4,4.4c0.5,4.1,0.3,10-1.3,25.3
			c-0.2,1.8,6.8,1,6.6-1.2c-1.5-14.4-1.7-20.1-1.2-24.1c0.2-1.7,1.1-3.3,2.4-4.4c2.4-2,4.1-5.7,4.1-9.9
			C151.7,78.1,147.9,72.9,143.2,72.9z"/>
		<path class="st0" d="M95.4,86.3L95.4,86.3c-0.6,0-1.1,0.5-1.1,1c0,0,0,0,0,0v13.8c0,0.5-0.3,1-0.8,1.1c-0.6,0.1-1.1-0.3-1.2-0.8
			c0-0.1,0-0.1,0-0.2V87.4c0-0.5-0.3-1-0.8-1.1c-0.6-0.1-1.1,0.3-1.2,0.8c0,0.1,0,0.1,0,0.2v13.8c0,0.5-0.3,1-0.8,1.1
			c-0.6,0.1-1.1-0.3-1.2-0.8c0-0.1,0-0.1,0-0.2V87.4c0-0.5-0.3-1-0.8-1.1c-0.6-0.1-1.1,0.3-1.2,0.8c0,0.1,0,0.1,0,0.2v13.8
			c0,0.5-0.3,1-0.8,1.1c-0.6,0.1-1.1-0.3-1.2-0.8c0-0.1,0-0.1,0-0.2V87.3c0-0.6-0.5-1-1-1h0c-0.5,0-1,0.4-1,1
			c-0.1,2.7-0.5,10.2-0.5,15c0,2.7,1.4,5.1,3.8,6.4c0.8,0.4,1.4,1.2,1.6,2.1c0.7,3.6,0.7,8-0.4,19.7c-0.3,3.6,0.3-1.7,2.7-1.7
			s3,4.9,2.6,1.3c-1-11.4-1-15.6-0.3-19.2c0.2-0.9,0.8-1.7,1.6-2.1c2.3-1.3,3.8-3.7,3.8-6.4c0-4.8-0.3-12.3-0.5-15
			C96.4,86.7,95.9,86.3,95.4,86.3z"/>
	</g>
	<g>
		<g>
			<g>
				
					<rect x="135.5" y="113.6" transform="matrix(0.9999 -1.387457e-02 1.387457e-02 0.9999 -1.6323 1.8989)" class="st0" width="1.1" height="9.9"/>
				<path class="st0" d="M98.3,126L98.2,115c0-0.2,0.1-0.6,0.2-0.8l8-12.7l7.4,12c0.1,0.2,0.2,0.6,0.3,0.9l0.2,11.4l1.1,0l-0.2-11.4
					c0-0.4-0.2-1.1-0.4-1.4l-7.6-12.2c-0.4-0.6-1.2-0.6-1.6,0l-8.1,12.9c-0.2,0.4-0.4,1-0.4,1.5l0.2,10.9L98.3,126z"/>
			</g>
		</g>
		<path class="st5" d="M136.5,113.5l-8-12.6c-0.2-0.3-0.6-0.5-1-0.5l-4,0l-0.9,0l-1.3,0l-1.7,0l-1.3,0l-1,0l-2.8,0l-0.9,0l-1.4,0
			l-5.6,0c-0.3,0-0.5,0.2-0.3,0.5l7.9,13.2c0.2,0.3,0.6,0.5,0.9,0.5l21-0.4C136.6,114.1,136.7,113.8,136.5,113.5z"/>
	</g>
	<g>
		<path class="st0" d="M202.1,104.2v1.6h-0.3v-1.6h-0.6v-0.3h1.5v0.3H202.1z M204.9,105.8v-1.6h0l-0.6,1.6H204l-0.6-1.6h0v1.6h-0.3
			v-1.9h0.5l0.6,1.4l0.6-1.4h0.5v1.9H204.9z"/>
	</g>
</g>
</svg>
