<?xml version="1.0" encoding="utf-8"?>
<!-- Generator: Adobe Illustrator 23.0.6, SVG Export Plug-In . SVG Version: 6.00 Build 0)  -->
<svg version="1.1" id="Layer_1f" xmlns="http://www.w3.org/2000/svg" xmlns:xlink="http://www.w3.org/1999/xlink" x="0px" y="0px"
	 viewBox="0 0 134 100" style="enable-background:new 0 0 134 100;" xml:space="preserve">
<style type="text/css">
	.st0{fill:none;}
</style>
<g>
	<path class="st0" d="M48,76.5c-1.4,0-2.5,1.1-2.5,2.5s1.1,2.5,2.5,2.5s2.5-1.1,2.5-2.5C50.5,77.6,49.4,76.5,48,76.5z"/>
	<path class="st0" d="M96,76.5c-1.4,0-2.5,1.1-2.5,2.5s1.1,2.5,2.5,2.5c1.4,0,2.5-1.1,2.5-2.5C98.4,77.6,97.3,76.5,96,76.5z"/>
	<path d="M126.6,21.2c-2.2-1.1-4.7-0.3-5.7,1.9L98.2,55.4H44.6l-19.4-39C24.4,15,23,14,21.4,14H9.1c-2.4,0-4.3,1.9-4.3,4.3
		s1.9,4.3,4.3,4.3h9.6l19.3,39c0.8,1.5,2.2,2.4,3.8,2.4h58.9c1.6,0,3-0.9,3.8-2.3L128.2,27C129.5,24.9,128.6,22.2,126.6,21.2z"/>
	<path d="M48,67.9c-6.1,0-11,4.9-11,11s4.9,11,11,11s11-4.9,11-11C59,72.9,54.1,67.9,48,67.9z M48,81.4c-1.4,0-2.5-1.1-2.5-2.5
		c0-1.4,1.1-2.5,2.5-2.5s2.5,1.1,2.5,2.5S49.4,81.4,48,81.4z"/>
	<path d="M96,67.9c-6.1,0-11,4.9-11,11s4.9,11,11,11c6.1,0,11-4.9,11-11C107.1,72.9,102.1,67.9,96,67.9z M96,81.4
		c-1.4,0-2.5-1.1-2.5-2.5c0-1.4,1.1-2.5,2.5-2.5c1.4,0,2.5,1.1,2.5,2.5C98.4,80.3,97.3,81.4,96,81.4z"/>
</g>
</svg>
