<?xml version="1.0" encoding="utf-8"?>
<!-- Generator: Adobe Illustrator 23.0.4, SVG Export Plug-In . SVG Version: 6.00 Build 0)  -->
<svg version="1.1" id="Layer_1e" xmlns="http://www.w3.org/2000/svg" xmlns:xlink="http://www.w3.org/1999/xlink" x="0px" y="0px"
	 viewBox="0 0 120.2 120" style="enable-background:new 0 0 120.2 120;" xml:space="preserve">
<style type="text/css">
	.st0{stroke:#11924A;stroke-width:1.7142;stroke-miterlimit:10;}
	.st1{stroke:#11924A;stroke-width:2;stroke-miterlimit:10;}
</style>
<g>
	<path class="st0" d="M56.1,35.7c-1,0-1.8,1.1-1.8,2.5v33.4c0,1.4,0.8,2.5,1.8,2.5c1,0,1.8-1.1,1.8-2.5V38.2
		C57.9,36.8,57.1,35.7,56.1,35.7z"/>
	<path class="st0" d="M63.7,35.7c-1,0-1.8,1.1-1.8,2.5v33.4c0,1.4,0.8,2.5,1.8,2.5c1,0,1.8-1.1,1.8-2.5V38.2
		C65.5,36.8,64.7,35.7,63.7,35.7z"/>
	<path class="st1" d="M59.7,10.1C32.2,10.1,9.9,32.5,9.9,60s22.3,49.8,49.8,49.8c27.5,0,49.8-22.3,49.8-49.8S87.2,10.1,59.7,10.1z
		 M68.2,104v-8.8c0.3-3.3,0.8-3.7,2.8-5.2c1-0.8,2.3-1.8,3.8-3.3c4.6-4.7,3.4-12.9,3.2-13.7l-4.5-35.1c-0.2-1.4-1.5-2.4-2.8-2.2
		c-1.4,0.2-2.3,1.4-2.2,2.8l4.5,35.2c0.3,1.7,0.6,7.1-1.8,9.5c-1.3,1.3-2.4,2.1-3.3,2.8c-2.6,2-4.3,3.5-4.8,8.8c0,0.1,0,0.2,0,0.2
		v9.6c-1.1,0.1-2.3,0.1-3.4,0.1c-1.2,0-2.3-0.1-3.4-0.1v-9.6c0-0.1,0-0.2,0-0.2c-0.5-5.3-2.1-6.8-4.8-8.8c-0.9-0.7-2-1.5-3.3-2.8
		c-2.4-2.4-2.1-7.7-1.8-9.6l4.5-35.1c0.2-1.4-0.8-2.6-2.2-2.8c-1.4-0.2-2.6,0.8-2.8,2.2l-4.5,35c-0.2,0.9-1.4,9.2,3.2,13.8
		c1.5,1.6,2.8,2.5,3.8,3.3c2,1.5,2.5,1.9,2.8,5.2v8.8c-20.7-4-36.4-22.2-36.4-44c0-24.7,20.1-44.8,44.8-44.8
		c24.7,0,44.8,20.1,44.8,44.8C104.5,81.8,88.8,100,68.2,104z"/>
</g>
</svg>
