<svg xmlns="http://www.w3.org/2000/svg" xmlns:xlink="http://www.w3.org/1999/xlink" width="100" height="100" viewBox="0 0 100 100"><g><g transform="translate(50 50) scale(0.69 0.69) rotate(0) translate(-50 -50)" style="fill:#000000"><svg fill="#000000" xmlns="http://www.w3.org/2000/svg" xmlns:xlink="http://www.w3.org/1999/xlink" version="1.1" x="0px" y="0px" viewBox="0 0 512 512" enable-background="new 0 0 512 512" xml:space="preserve"><path d="M348.803,124.74c-24.131-9.489-56.223-14.505-92.803-14.505c-36.581,0-68.671,5.016-92.803,14.505  c-42.892,16.866-49.296,43.796-49.296,58.347c0,14.467,5.828,27.815,17.321,39.67c1.356,1.399,2.115,3.272,2.115,5.221v130.018  c0,24.135,19.634,43.77,43.769,43.77h157.791c24.135,0,43.77-19.635,43.77-43.77V227.979c0-1.949,0.758-3.822,2.114-5.221  c11.493-11.855,17.32-25.203,17.32-39.67C398.1,168.536,391.695,141.606,348.803,124.74z M359.238,201.877l-8.46,8.727  c-1.356,1.399-2.114,3.271-2.114,5.22v142.172c0,7.592-6.178,13.77-13.771,13.77h-157.79c-7.592,0-13.769-6.178-13.769-13.77  V215.824c0-1.949-0.758-3.82-2.115-5.22l-8.46-8.727c-7.853-8.102-8.86-14.297-8.86-18.79c0-15.309,16.463-24.998,30.274-30.428  c20.669-8.127,48.964-12.424,81.825-12.424c32.86,0,61.155,4.296,81.824,12.423c13.812,5.431,30.274,15.12,30.274,30.429  C368.1,187.58,367.092,193.775,359.238,201.877z"></path></svg></g></g></svg>