<?xml version="1.0" encoding="utf-8"?>
<!-- Generator: Adobe Illustrator 23.0.4, SVG Export Plug-In . SVG Version: 6.00 Build 0)  -->
<svg version="1.1" xmlns="http://www.w3.org/2000/svg" xmlns:xlink="http://www.w3.org/1999/xlink" x="0px" y="0px"
	 viewBox="0 0 808 1068" style="enable-background:new 0 0 808 1068;" xml:space="preserve">
<style type="text/css">
	.st0{fill:none;stroke:#231F20;stroke-width:42.8708;stroke-miterlimit:10;}
</style>
<g id="Layer_1c">
</g>
<g id="Layer_3">
	<g>
		<path class="st0" d="M675.7,690.2C639,515.1,397,370.4,536.4,115C403,135,344.5,253.7,359.9,363.9
			c14.1,100.7-34.7,154.4-34.7,154.4s-43.1-138.6-130.7-163.5c39.3,172.9-63.9,233.8-79.7,356.7c-12.7,99,39.8,186.6,129.1,236.3
			c-13.9-73.5,41.5-111.6,10.9-225.8c76.7,15.8,108.9,95.6,102.9,161.8c76.3-45.2,84-159.7,63-277.3
			c132.4,113.6,135.1,264,113.4,365.8C638.5,934,698.3,798.3,675.7,690.2z"/>
	</g>
</g>
</svg>
