<svg xmlns="http://www.w3.org/2000/svg" xmlns:xlink="http://www.w3.org/1999/xlink" width="100" height="100" viewBox="0 0 100 100"><g><g transform="translate(50 50) scale(0.69 0.69) rotate(0) translate(-50 -50)" style="fill:#000000"><svg fill="#000000" xmlns="http://www.w3.org/2000/svg" xmlns:xlink="http://www.w3.org/1999/xlink" version="1.1" x="0px" y="0px" viewBox="0 0 100 100" enable-background="new 0 0 100 100" xml:space="preserve"><path fill="#000000" d="M50.798,10.079c-25.852,0-46.797,20.953-46.797,46.797c0,13.141,5.531,25.688,15.227,34.547  c0.797-1.805,1.648-3.594,2.547-5.344c3.672-7.125,8.789-13.406,15.031-18.438c0.938-0.75,1.938-1.43,2.977-2.023  c-1.867-1.305-3.484-2.922-4.781-4.789c-6.086-8.727-3.938-20.727,4.781-26.812c8.734-6.078,20.734-3.93,26.82,4.797  c6.07,8.719,3.938,20.727-4.797,26.805c1.047,0.594,2.039,1.273,2.977,2.023c6.25,5.031,11.367,11.312,15.031,18.438  c0.906,1.75,1.758,3.539,2.547,5.344c9.711-8.859,15.234-21.406,15.234-34.547C97.595,31.032,76.642,10.079,50.798,10.079z"></path></svg></g></g></svg>