<svg xmlns="http://www.w3.org/2000/svg" xmlns:xlink="http://www.w3.org/1999/xlink" width="100" height="100" viewBox="0 0 100 100"><g><g transform="translate(50 50) scale(0.69 0.69) rotate(0) translate(-50 -50)" style="fill:#000000"><svg fill="#000000" xmlns="http://www.w3.org/2000/svg" xmlns:xlink="http://www.w3.org/1999/xlink" version="1.1" x="0px" y="0px" viewBox="0 0 100 100" enable-background="new 0 0 100 100" xml:space="preserve"><path d="M63.247,91.762c-4.338,1.513-8.816,2.265-13.279,2.265c-5.982,0-11.935-1.351-17.479-4.028  c-9.683-4.679-16.964-12.847-20.501-23C4.684,46.04,15.791,23.045,36.748,15.739c8.312-2.896,17.223-2.967,25.443-0.352  l-1.418-2.976c-1.069-2.243-0.118-4.929,2.125-5.998c2.241-1.073,4.928-0.118,5.999,2.125l6.361,13.341  c0.538,1.129,0.583,2.434,0.12,3.596c-0.462,1.163-1.386,2.082-2.553,2.535l-13.608,5.29c-0.536,0.208-1.088,0.308-1.63,0.308  c-1.802,0-3.503-1.09-4.194-2.871c-0.9-2.316,0.248-4.924,2.563-5.824l2.899-1.127c-6.214-1.84-12.898-1.727-19.146,0.451  C23.44,29.909,14.815,47.763,20.486,64.036c2.747,7.885,8.399,14.226,15.917,17.857c7.517,3.631,15.998,4.118,23.882,1.37  c16.273-5.673,24.899-23.528,19.229-39.804c-0.818-2.348,0.422-4.912,2.769-5.729c2.345-0.818,4.913,0.42,5.73,2.769  C95.316,61.46,84.206,84.457,63.247,91.762z M49.999,73.946c2.485,0,4.5-2.015,4.5-4.5V59.8h9.647c2.484,0,4.5-2.016,4.5-4.5  s-2.016-4.5-4.5-4.5h-9.647v-9.646c0-2.485-2.015-4.5-4.5-4.5c-2.484,0-4.5,2.015-4.5,4.5V50.8h-9.646c-2.485,0-4.5,2.016-4.5,4.5  s2.015,4.5,4.5,4.5h9.646v9.646C45.499,71.933,47.515,73.946,49.999,73.946z"></path></svg></g></g></svg>