<svg xmlns="http://www.w3.org/2000/svg" xmlns:xlink="http://www.w3.org/1999/xlink" width="100" height="100" viewBox="0 0 100 100"><g><g transform="translate(50 50) scale(0.69 0.69) rotate(0) translate(-50 -50)" style="fill:#000000"><svg fill="#000000" xmlns="http://www.w3.org/2000/svg" xmlns:xlink="http://www.w3.org/1999/xlink" version="1.1" x="0px" y="0px" viewBox="0 0 100 100" enable-background="new 0 0 100 100" xml:space="preserve"><g><path d="M56.458,38.734h-1.92H6.924H5l0.747,1.71l21.461,48.149c0.321,0.747,0.747,1.28,1.387,1.706   c0.64,0.43,1.387,0.644,2.136,0.644c0.747,0,1.494-0.214,2.027-0.644c0.64-0.426,1.174-0.959,1.498-1.706l21.351-48.149   L56.458,38.734z"></path><path d="M94.253,88.272L72.793,40.125c-0.321-0.747-0.747-1.284-1.387-1.712c-0.64-0.426-1.387-0.639-2.136-0.639   c-0.747,0-1.494,0.212-2.134,0.639c-0.533,0.428-1.066,0.965-1.391,1.712L44.289,88.272l-0.747,1.707h1.92h47.616H95L94.253,88.272   z"></path><path d="M69.27,33.931c3.416,0,6.513-1.387,8.758-3.63c2.346-2.241,3.733-5.337,3.733-8.754c0-3.525-1.387-6.621-3.733-8.861   c-2.245-2.245-5.342-3.63-8.758-3.63c-3.414,0-6.51,1.385-8.754,3.63c-2.24,2.239-3.737,5.336-3.737,8.861   c0,3.416,1.496,6.513,3.737,8.754C62.759,32.544,65.856,33.931,69.27,33.931z"></path><path d="M30.731,33.931c3.418,0,6.51-1.387,8.754-3.63c2.24-2.241,3.631-5.337,3.631-8.754c0-3.525-1.391-6.621-3.631-8.861   c-2.243-2.245-5.336-3.63-8.754-3.63c-3.416,0-6.62,1.385-8.863,3.63c-2.239,2.239-3.626,5.336-3.626,8.861   c0,3.416,1.387,6.513,3.626,8.754C24.111,32.544,27.314,33.931,30.731,33.931z"></path></g></svg></g></g></svg>