<svg xmlns="http://www.w3.org/2000/svg" xmlns:xlink="http://www.w3.org/1999/xlink" width="100" height="100" viewBox="0 0 100 100"><g><g transform="translate(50 50) scale(0.69 0.69) rotate(0) translate(-50 -50)" style="fill:#000000"><svg fill="#000000" xmlns="http://www.w3.org/2000/svg" xmlns:xlink="http://www.w3.org/1999/xlink" version="1.1" x="0px" y="0px" viewBox="0 0 100 100" enable-background="new 0 0 100 100" xml:space="preserve"><path d="M85.426,31.347L83.327,7.19c-0.143-1.382-0.858-2.188-2.187-2.188c-1.332,0-2.19,0.858-2.19,2.188v20.225  c0,1.405-0.905,2.311-2.31,2.311h-0.105c-1.404,0-2.311-0.906-2.311-2.311V7.19c0-1.33-0.859-2.188-2.189-2.188  c-1.331,0-2.19,0.858-2.189,2.188l-0.001,20.225c0,1.405-0.905,2.311-2.311,2.311H67.43c-1.404,0-2.31-0.906-2.31-2.311V7.19  c0-1.33-0.858-2.188-2.19-2.19c-1.329,0-2.045,0.808-2.188,2.189l-2.1,24.156c-0.57,6.569,2.591,11.908,8.781,13.375l-3.902,41.904  C63.199,92.08,66.951,95,72.035,95s8.834-2.92,8.513-8.374l-3.9-41.905C82.837,43.254,85.997,37.915,85.426,31.347z"></path><path d="M34.646,44.721l3.901,41.905C38.867,92.08,35.117,95,30.033,95c-5.084,0-8.835-2.92-8.513-8.375l3.902-41.904  c-5.357-2.244-10.915-8.63-10.915-19.008C14.508,14.522,21.322,5,30.034,5s15.525,9.522,15.525,20.713  C45.559,36.091,40.002,42.477,34.646,44.721z"></path></svg></g></g></svg>