<svg xmlns="http://www.w3.org/2000/svg" xmlns:xlink="http://www.w3.org/1999/xlink" width="100" height="100" viewBox="0 0 100 100"><g><g transform="translate(50 50) scale(0.69 0.69) rotate(0) translate(-50 -50)" style="fill:#000000"><svg fill="#000000" xmlns="http://www.w3.org/2000/svg" xmlns:xlink="http://www.w3.org/1999/xlink" version="1.1" x="0px" y="0px" viewBox="0 0 100 100" style="enable-background:new 0 0 100 100;" xml:space="preserve"><g><path d="M44.8,85.5l3.5,1.5c0.4,0.2,0.8,0.2,1.2,0.2c0.4,0,0.8-0.1,1.2-0.2l4-1.7C69.3,79.2,78.8,65,78.8,49.1V29.7   c0-1.1-0.6-2.1-1.6-2.6l-26.2-14c-0.9-0.5-2-0.5-2.9,0l-25.4,14c-1,0.5-1.6,1.5-1.6,2.6v19.8C21.2,65.1,30.5,79.3,44.8,85.5z    M27.2,31.5l22.5-12.4l23.1,12.4v17.6c0,13.4-8,25.5-20.4,30.7L49.5,81l-2.3-1c-12.1-5.3-20-17.3-20-30.5V31.5z"></path><polygon points="45.5,61.7 45.6,61.7 45.6,61.7 47.9,59.8 66.2,45 62.4,40.3 46.3,53.3 39.4,45.2 34.8,49.1 43.7,59.4  "></polygon></g></svg></g></g></svg>