<?xml version="1.0" encoding="utf-8"?>
<!-- Generator: Adobe Illustrator 24.1.2, SVG Export Plug-In . SVG Version: 6.00 Build 0)  -->
<svg version="1.1" id="Layer_1" xmlns="http://www.w3.org/2000/svg" xmlns:xlink="http://www.w3.org/1999/xlink" x="0px" y="0px"
	 viewBox="0 0 534 531" style="enable-background:new 0 0 534 531;" xml:space="preserve">
<style type="text/css">
	.st0{fill:#FFFFFF;}
	.st1{fill:#3B5999;}
</style>
<g>
	<path class="st0" d="M457.5,9h-384c-35.3,0-64,28.7-64,64v384c0,35.3,28.7,64,64,64h384c35.3,0,64-28.7,64-64V73
		C521.5,37.7,492.8,9,457.5,9z"/>
	<path class="st1" d="M457.5,9h-384c-35.3,0-64,28.7-64,64v384c0,35.3,28.7,64,64,64h192V345h-64v-80h64v-64c0-53,43-96,96-96h64v80
		h-32c-17.7,0-32-1.7-32,16v64h80l-32,80h-48v176h96c35.3,0,64-28.7,64-64V73C521.5,37.7,492.8,9,457.5,9z"/>
</g>
</svg>
